<?xml version="1.0" encoding="utf-8"?>
<!-- Generator: Adobe Illustrator 27.5.0, SVG Export Plug-In . SVG Version: 6.00 Build 0)  -->
<svg version="1.1" id="Layer_1" xmlns="http://www.w3.org/2000/svg" xmlns:xlink="http://www.w3.org/1999/xlink" x="0px" y="0px"
	 viewBox="0 0 150 30" style="enable-background:new 0 0 150 30;" xml:space="preserve">
<style type="text/css">
	.st0{fill:#FFFFFF;}
	.st1{fill:#E1251B;}
</style>
<g>
	<path class="st0" d="M45.7,18.7c1.6,0,2.4,1,2.4,2.4s-0.8,2.4-2.4,2.4c-1.6,0-2.4-1-2.4-2.4C43.3,19.9,44.2,18.7,45.7,18.7
		 M39.7,26.7h3.7v-1.6l0,0c0.7,1,2,1.6,3.2,1.6c3.1,0,5.3-2.6,5.3-5.6s-2.2-5.6-5.3-5.6c-1.2,0-2.5,0.4-3.2,1.4V9.2h-3.7V26.7z"/>
	<path class="st0" d="M57.3,19.7c0.2-1,1.1-1.7,2.2-1.7s2,0.6,2.1,1.7H57.3z M65.1,21.4c0-3.6-2.1-5.8-5.7-5.8
		c-3.4,0-5.8,2.1-5.8,5.6c0,3.6,2.6,5.6,6.1,5.6c2.4,0,4.8-1.1,5.3-3.6h-3.6c-0.4,0.7-0.9,0.9-1.8,0.9c-1.6,0-2.3-0.8-2.3-2.4h7.8
		V21.4z"/>
	<path class="st0" d="M71,17.3L71,17.3c0.9-1.4,2-1.8,3.5-1.8c2.9,0,4.1,1.9,4.1,4.6v6.8h-3.8v-5.3c0-1,0.2-2.9-1.8-2.9
		c-1.6,0-2,1.1-2,2.5v5.6h-3.8V15.5H71C71,15.5,71,17.3,71,17.3z"/>
	<path class="st0" d="M86.5,18.7c1.6,0,2.4,1,2.4,2.4s-0.8,2.4-2.4,2.4c-1.6,0-2.4-1-2.4-2.4C84.1,19.9,85.1,18.7,86.5,18.7
		 M92.6,15.5h-3.7v1.4c-0.7-0.9-2.1-1.4-3.2-1.4c-3.1,0-5.3,2.6-5.3,5.6s2.2,5.6,5.3,5.6c1.2,0,2.5-0.5,3.2-1.6l0,0v1.6h3.7V15.5z"
		/>
	<polygon class="st0" points="100.8,21.3 103.4,15.5 107.6,15.5 102,26.7 99.5,26.7 93.9,15.5 98.2,15.5 	"/>
	<path class="st0" d="M120.8,18.8c1.6,0,2.4,1,2.4,2.4s-0.8,2.4-2.4,2.4c-1.6,0-2.4-1-2.4-2.4C118.4,19.9,119.4,18.8,120.8,18.8
		 M123.1,26.8h3.7V9.2h-3.7v7.7c-0.7-0.9-2.1-1.4-3.2-1.4c-3.1,0-5.3,2.6-5.3,5.6s2.2,5.6,5.3,5.6c1.2,0,2.5-0.5,3.2-1.6l0,0V26.8z"
		/>
	<path class="st0" d="M132.3,19.7c0.2-1,1.1-1.7,2.2-1.7s2,0.6,2.1,1.7H132.3z M140.1,21.4c0-3.6-2.1-5.8-5.7-5.8
		c-3.4,0-5.8,2.1-5.8,5.6c0,3.6,2.6,5.6,6.1,5.6c2.4,0,4.8-1.1,5.4-3.6h-3.6c-0.4,0.7-0.9,0.9-1.8,0.9c-1.6,0-2.3-0.8-2.3-2.4h7.9
		v-0.3H140.1z"/>
	<path class="st0" d="M148.4,18.6c-0.6-0.3-1.4-0.5-2-0.5c-0.4,0-1.1,0.2-1.1,0.7c0,0.7,1.1,0.8,1.7,0.9c1.8,0.3,3,1.1,3,3.1
		c0,2.8-2.5,3.9-5,3.9c-1.5,0-3-0.4-4.3-1.2l1.4-2.6c0.7,0.5,2.1,1,2.9,1c0.5,0,1.1-0.2,1.1-0.8c0-0.8-1.1-0.8-2.3-1.1
		c-1.1-0.3-2.3-0.9-2.3-2.8c0-2.6,2.3-3.7,4.7-3.7c1.1,0,2.4,0.2,3.4,0.7L148.4,18.6z"/>
	<path class="st0" d="M147.8,11.1c-0.2,0-0.5,0-0.5,0v-0.6h0.5c0.2,0,0.4,0,0.4,0.3C148.3,11,148,11.1,147.8,11.1 M148.2,11.5
		c0,0,0.5-0.1,0.5-0.6c0-0.3-0.2-0.6-0.8-0.6h-1v2.3h0.4v-0.9h0.4c0,0,0.4,0.4,0.6,0.9h0.5C149,12.5,148.5,11.8,148.2,11.5"/>
	<path class="st0" d="M146.1,11.4c0-0.9,0.8-1.8,1.8-1.8c0.9,0,1.8,0.8,1.8,1.8s-0.8,1.8-1.8,1.8C146.8,13,146.1,12.3,146.1,11.4
		 M145.6,11.4c0,1.1,0.9,2.2,2.2,2.2s2.2-0.9,2.2-2.2c0-1.1-0.9-2.2-2.2-2.2C146.6,9.2,145.6,10.1,145.6,11.4"/>
	<rect x="109" y="15.5" class="st0" width="3.8" height="11.2"/>
	<path class="st0" d="M113,11.4c0,1.1-0.9,2.2-2.2,2.2c-1.1,0-2.1-0.9-2.1-2.2c0-1.1,0.9-2.2,2.1-2.2C112.1,9.2,113,10.1,113,11.4"
		/>
	<path class="st0" d="M48.9,13.4h-1.2v-2.5h-0.4V10h0.4V9.5c0-0.9,0.4-1.9,1.7-1.9c0.2,0,0.4,0,0.6,0.1v1c-0.2,0-0.4,0-0.5,0
		c-0.5,0-0.5,0.6-0.5,0.9V10h1v0.9h-1V13.4z"/>
	<path class="st0" d="M54.7,11.4c0-0.5-0.4-1.1-1-1.1c-0.6,0-1,0.6-1,1.1c0,0.5,0.4,1.1,1,1.1C54.3,12.5,54.7,11.9,54.7,11.4
		 M55.9,13.4h-1.2v-0.5l0,0c-0.3,0.3-0.7,0.5-1.1,0.5c-1.2,0-2.1-1-2.1-2.2c0-1,0.7-2.1,2-2.1c0.4,0,0.9,0.2,1.2,0.5V9.2h1.2
		C55.9,9.2,55.9,13.4,55.9,13.4z"/>
	<path class="st0" d="M58.7,9.8L58.7,9.8c0.3-0.3,0.6-0.5,1.1-0.5c0.2,0,0.4,0,0.5,0.1l-0.2,1.1c-0.2-0.1-0.3-0.1-0.5-0.1
		c-0.9,0-1,0.7-1,1.4v1.9h-1.2V9.2h1.2v0.6H58.7z"/>
	<path class="st0" d="M63.4,9.7L63.4,9.7c0.3-0.3,0.7-0.5,1.1-0.5c0.5,0,1,0.2,1.4,0.6c0.3-0.4,0.8-0.6,1.4-0.6
		c1.1,0,1.5,0.8,1.5,1.7v2.6h-1.2v-2.2c0-0.4,0-1.1-0.6-1.1c-0.7,0-0.7,0.8-0.7,1.2v2.1h-1.5v-2.1c0-0.4,0.1-1.2-0.6-1.2
		c-0.7,0-0.7,0.8-0.7,1.2v2.1H62V9.2h1.2v0.5H63.4z"/>
	<path class="st0" d="M73.3,11.4c0-0.5-0.4-1.1-1-1.1s-1,0.6-1,1.1c0,0.5,0.4,1.1,1,1.1C73,12.5,73.3,11.9,73.3,11.4 M74.5,13.4
		h-1.2v-0.5l0,0c-0.3,0.3-0.7,0.5-1.1,0.5c-1.2,0-2.1-1-2.1-2.2c0-1,0.7-2.1,2-2.1c0.4,0,0.9,0.2,1.2,0.5V9.2h1.2V13.4z"/>
	<path class="st0" d="M79.3,10.5c-0.3-0.2-0.5-0.4-0.9-0.4c-0.7,0-1.1,0.6-1.1,1.1c0,0.6,0.4,1.1,1.1,1.1c0.3,0,0.6-0.1,0.8-0.4v1.1
		c-0.3,0.2-0.7,0.2-1,0.2c-1.4,0-2.2-0.9-2.2-2.1s0.9-2.2,2.3-2.2c0.3,0,0.7,0.1,1,0.2V10.5z"/>
	<path class="st0" d="M86.7,11.4c0-0.5-0.4-1.1-1-1.1c-0.6,0-1,0.6-1,1.1c0,0.5,0.4,1.1,1,1.1C86.4,12.5,86.7,11.9,86.7,11.4
		 M87.9,13.4h-1.2v-0.5l0,0c-0.3,0.3-0.7,0.5-1.1,0.5c-1.2,0-2.1-1-2.1-2.2c0-1,0.7-2.1,2-2.1c0.4,0,0.9,0.2,1.2,0.5V9.2h1.2V13.4z"
		/>
	<path class="st0" d="M91.8,10.3c-0.2-0.1-0.4-0.3-0.6-0.3c-0.2,0-0.4,0.1-0.4,0.3c0,0.3,0.4,0.4,0.9,0.5c0.4,0.2,0.9,0.4,0.9,1.1
		c0,0.9-0.8,1.5-1.7,1.5c-0.6,0-1.1-0.2-1.6-0.6l0.6-0.7c0.2,0.2,0.5,0.4,0.9,0.4c0.3,0,0.5-0.2,0.5-0.4c0-0.3-0.4-0.4-0.8-0.6
		c-0.4-0.2-0.8-0.4-0.8-1c0-0.7,0.6-1.2,1.4-1.2c0.4,0,1,0.1,1.5,0.4L91.8,10.3z"/>
	<rect x="80.8" y="9.2" class="st0" width="1.2" height="4.3"/>
	<path class="st0" d="M81.4,9c0.3,0,0.6-0.3,0.6-0.6s-0.3-0.6-0.6-0.6c-0.3,0-0.6,0.3-0.6,0.6S81,9,81.4,9"/>
	<rect x="-0.1" y="3.6" class="st0" width="36.6" height="23.2"/>
	<path class="st1" d="M32.9,10.9L32.9,10.9c-0.3,0-0.9,0-0.9,0S31.8,11,31.9,11c0.1,0,0.3,0.1,0.3,0.1s0.2,0.1,0,0.1
		c-0.1,0-0.3,0-0.3,0s-0.3,0-0.4,0c-0.1,0-0.6-0.1-0.6-0.1s-0.7,0-1.1,0.1c-0.8,0.2-1.5,0.1-1.9,0.1c-0.1,0-0.3,0-0.3,0
		c-0.2,0.1-1.2,0.1-1.9,0.1v-0.2c0-0.1-0.1-0.3-0.1-0.4c0-0.1-0.1-0.2-0.2-0.2c-0.2-0.1-0.3-0.1-0.3-0.1c1,0,1.7,0,2.4,0.1
		c0.3,0,1.1-0.2,2.9,0.2c0,0,0.5,0,0.6,0l0.8-0.1l0.5,0.1l0.5,0.1C33.1,10.8,33,10.9,32.9,10.9 M31.2,16.7c0,0-0.4-0.5-0.7-0.5
		c-0.1-0.1-0.1-0.1-0.1,0c0.1,0.1,0.2,0.2,0.2,0.2s0.1,0.2-0.1,0.1c-0.1,0-0.2-0.2-0.2-0.2L29.9,16c-0.1-0.1-0.4-0.4-0.4-0.4
		S29,15.2,28.6,15c-0.7-0.4-1.1-0.8-1.5-1.1c0,0-0.2-0.1-0.2-0.2c-0.2-0.1-0.7-0.5-1.1-0.8l-0.1-1.5l0.2,0.2c0.7,0.5,1,0.9,1.6,1.5
		c0.2,0.2,0.9,0.6,2.1,2c0,0,0.4,0.3,0.4,0.4l0.6,0.4l0.2,0.3c0.2,0.3,0.3,0.4,0.3,0.4C31.4,16.7,31.3,16.8,31.2,16.7 M26,18.4
		c0,0.3-0.4,0.7-0.4,0.7l0,0c-0.1,0.1-0.2,0-0.1-0.1l0,0c0.2-0.3,0.1-0.8,0.1-0.8s-0.1-0.2-0.1-0.1s0,0.3,0,0.3s-0.1,0.2-0.2,0
		c0-0.1,0-0.2,0-0.2s-0.1-0.2-0.1-0.3s0.1-0.5,0.1-0.5s0-0.6-0.2-1c-0.2-0.7-0.2-1.4-0.1-1.7c0-0.1,0-0.2,0-0.3
		c-0.1-0.2-0.1-1.1-0.1-1.9l0.9-0.7v0.5c0,0.9,0.1,1.4,0.1,2c0,0.3,0.2,1-0.1,2.7v0.5l0.1,0.7L26,18.4z M-0.1,3.6v23.2h21.7l0,0l0,0
		c0,0-0.1-0.1,0-0.4c0.1-0.1,0.2-0.4,0.3-0.5c0,0,0.1-0.2,0-0.3c0-0.1,0-0.2,0-0.2c0-0.1,0-0.3,0-0.3c-0.2-0.5-0.5-1.4-0.4-2.8
		c0-0.1,0-0.2,0-0.4c0-0.3-0.1-0.4-0.1-0.6c-0.2-0.6-0.4-1.5-0.4-1.5L20.9,19l-0.1-0.9c0,0,0-1,0.1-1.7c0.1-0.6,0.3-1.8,0.3-1.8
		v-2.2c0,0-0.1-0.3-0.2,0c0,0.1,0,1.6-0.2,1.9c0,0,0,0.2,0,0.3c0,0.4,0.1,0.9-0.1,1.7c-0.1,0.4-0.2,1-0.2,1s0.1,0.4,0.1,0.5
		s-0.1,0.4-0.1,0.4v0.2c-0.1,0.2-0.2,0-0.2,0s0-0.2,0-0.3c0-0.2-0.1,0.1-0.1,0.1s-0.1,0.6,0.1,0.8c0.1,0.1-0.1,0.2-0.1,0.1
		c0,0-0.4-0.4-0.4-0.7v-0.2l0.1-0.7c0-0.1,0-0.5,0-0.5c-0.3-1.7,0-2.5-0.1-2.7c-0.1-0.6,0-1,0-2v-0.2c0-0.2,0-0.3,0-0.3
		c-0.1-1.1,0.7-1.2,0.7-1.2s0.3-0.2,0.9-0.4c0.1,0,0.4-0.2,0.4-0.3s0.1-0.7,0-0.8c-0.5-0.4-0.5-1.1-0.5-1.2c0.1-0.5,0.5-0.7,0.9-0.8
		c0,0,0.5-0.1,0.9,0.1c0.2,0.1,0.3,0.3,0.3,0.3s0.6,0.1,0.6,0.2c0,0.2,0,0.5,0,0.5l0.1,0.2c0,0,0.1,0.1,0.1,0.2c0,0.1,0,0.1,0,0.1
		h-0.1H24l0.1,0.1c0,0,0.1,0.1,0,0.1l0,0v0.2v0.2L24,9.4h-0.3c0,0.1,0,0.3,0,0.4c0,0.1,0.3,0.2,0.4,0.3c0.6,0.1,0.9,0.4,0.9,0.4
		s0.7,0.1,0.7,1l-1,0.8c-0.1,0-0.1,0.1-0.1,0.1l-0.1,2.3c0,0,0.3,1.2,0.4,1.8c0.1,0.5,0.1,1.7,0.1,1.7l-0.1,0.9l-0.1,0.6
		c0,0-0.2,0.8-0.4,1.5c0,0.2,0,0.4-0.1,0.6c0,0.2,0,0.4,0,0.4c0,1.4-0.3,2.3-0.4,2.8c0,0.1-0.1,0.6,0,0.8c0,0,0.2,0.3,0.4,0.3
		c0.3,0.1,0.3,0.2,0.7,0.3c0.1,0,0.2,0.1,0.3,0.1c0.2,0,0.1,0.2,0.1,0.2l0,0l0,0h11.1V3.6H-0.1z"/>
	<path class="st1" d="M23,17.8C23,17.8,23.1,17.8,23,17.8c0,0.1,0,2.6,0.1,2.9v0.2c0,0.1,0,0.3,0,0.4s0,0.4,0,0.4v0.3
		c0,0-0.1,0.6-0.1,1s0,1.8,0.1,2.1c0,0.1,0,0.2,0,0.4c0,0.1-0.1,0.6-0.1,0.6c-0.1,0-0.1-0.4-0.1-0.5c0,0,0-0.2,0-0.3
		c0-0.1,0.1-1.9,0.1-2.3c0-0.4-0.1-1-0.1-1v-0.3c0,0,0-0.2,0-0.4c0-0.1,0-0.3,0-0.4c0-0.1,0-0.2,0-0.2C23,20.1,23,17.9,23,17.8
		L23,17.8L23,17.8z"/>
</g>
</svg>
